<?xml version="1.0" encoding="utf-8"?>
<svg version="1.1" xmlns:xlink="http://www.w3.org/1999/xlink" width="122px" height="39px" xmlns="http://www.w3.org/2000/svg">
  <defs>
    <mask fill="white" id="clip1">
      <path d="M 0 26  L 0 13  C 0 5.72000000000003  5.72000000000025 0  13 0  L 71.6153846153848 0  L 109 0  C 116.28 0  122 5.72000000000003  122 13  L 122 26  C 122 33.28  116.28 39  109 39  L 13 39  C 5.72000000000025 39  0 33.28  0 26  Z " fill-rule="evenodd" />
    </mask>
  </defs>
  <g transform="matrix(1 0 0 1 -1156 -1007 )">
    <path d="M 0 26  L 0 13  C 0 5.72000000000003  5.72000000000025 0  13 0  L 71.6153846153848 0  L 109 0  C 116.28 0  122 5.72000000000003  122 13  L 122 26  C 122 33.28  116.28 39  109 39  L 13 39  C 5.72000000000025 39  0 33.28  0 26  Z " fill-rule="nonzero" fill="#ffffff" stroke="none" transform="matrix(1 0 0 1 1156 1007 )" />
    <path d="M 0 26  L 0 13  C 0 5.72000000000003  5.72000000000025 0  13 0  L 71.6153846153848 0  L 109 0  C 116.28 0  122 5.72000000000003  122 13  L 122 26  C 122 33.28  116.28 39  109 39  L 13 39  C 5.72000000000025 39  0 33.28  0 26  Z " stroke-width="2" stroke="#797979" fill="none" transform="matrix(1 0 0 1 1156 1007 )" mask="url(#clip1)" />
  </g>
</svg>